<mxfile host="app.diagrams.net" agent="Mozilla/5.0 (Windows NT 10.0; Win64; x64) AppleWebKit/537.36 (KHTML, like Gecko) Chrome/128.0.0.0 YaBrowser/24.10.0.0 Safari/537.36" version="24.8.9">
  <diagram name="Страница — 1" id="aVIj9qUEST13j_-yVXe9">
    <mxGraphModel dx="2520" dy="1395" grid="0" gridSize="10" guides="1" tooltips="1" connect="1" arrows="1" fold="1" page="1" pageScale="1" pageWidth="827" pageHeight="1169" math="0" shadow="0">
      <root>
        <mxCell id="0" />
        <mxCell id="1" parent="0" />
        <mxCell id="K872ePAgzn2kTXlysSnF-8" value="" style="edgeStyle=orthogonalEdgeStyle;rounded=0;orthogonalLoop=1;jettySize=auto;html=1;strokeWidth=2;fontStyle=1" parent="1" source="K872ePAgzn2kTXlysSnF-1" edge="1">
          <mxGeometry relative="1" as="geometry">
            <mxPoint x="97" y="114" as="targetPoint" />
          </mxGeometry>
        </mxCell>
        <mxCell id="K872ePAgzn2kTXlysSnF-1" value="начало" style="rounded=1;whiteSpace=wrap;html=1;strokeWidth=2;fontStyle=1" parent="1" vertex="1">
          <mxGeometry x="37" y="28" width="120" height="60" as="geometry" />
        </mxCell>
        <mxCell id="75eCIlnac6tYJ7EprAjz-3" value="" style="edgeStyle=orthogonalEdgeStyle;rounded=0;orthogonalLoop=1;jettySize=auto;html=1;entryX=0.5;entryY=0;entryDx=0;entryDy=0;fontStyle=1;strokeWidth=2;" edge="1" parent="1" source="75eCIlnac6tYJ7EprAjz-1" target="75eCIlnac6tYJ7EprAjz-2">
          <mxGeometry relative="1" as="geometry" />
        </mxCell>
        <mxCell id="75eCIlnac6tYJ7EprAjz-1" value="CD* head = NULL,&lt;div&gt;CD* tail = NULL&lt;br&gt;&lt;/div&gt;" style="rounded=0;whiteSpace=wrap;html=1;fontStyle=1;strokeWidth=2;" vertex="1" parent="1">
          <mxGeometry x="37" y="112" width="120" height="60" as="geometry" />
        </mxCell>
        <mxCell id="75eCIlnac6tYJ7EprAjz-5" value="" style="edgeStyle=orthogonalEdgeStyle;rounded=0;orthogonalLoop=1;jettySize=auto;html=1;exitX=0.498;exitY=0.983;exitDx=0;exitDy=0;exitPerimeter=0;fontStyle=1;strokeWidth=2;" edge="1" parent="1" source="75eCIlnac6tYJ7EprAjz-2" target="75eCIlnac6tYJ7EprAjz-4">
          <mxGeometry relative="1" as="geometry">
            <Array as="points">
              <mxPoint x="97" y="286" />
              <mxPoint x="97" y="286" />
            </Array>
          </mxGeometry>
        </mxCell>
        <mxCell id="75eCIlnac6tYJ7EprAjz-2" value="1" style="rhombus;whiteSpace=wrap;html=1;fontStyle=1;strokeWidth=2;" vertex="1" parent="1">
          <mxGeometry x="45.25" y="188" width="103.5" height="90" as="geometry" />
        </mxCell>
        <mxCell id="75eCIlnac6tYJ7EprAjz-8" value="" style="edgeStyle=orthogonalEdgeStyle;rounded=0;orthogonalLoop=1;jettySize=auto;html=1;entryX=0.5;entryY=0;entryDx=0;entryDy=0;fontStyle=1;strokeWidth=2;" edge="1" parent="1" source="75eCIlnac6tYJ7EprAjz-4" target="75eCIlnac6tYJ7EprAjz-9">
          <mxGeometry relative="1" as="geometry">
            <mxPoint x="96.97560975609758" y="376.02162433995466" as="targetPoint" />
          </mxGeometry>
        </mxCell>
        <mxCell id="75eCIlnac6tYJ7EprAjz-4" value="CD* newCD = (CD*)&lt;div&gt;malloc(sizeof(CD))&lt;/div&gt;" style="rounded=0;whiteSpace=wrap;html=1;fontStyle=1;strokeWidth=2;" vertex="1" parent="1">
          <mxGeometry x="37" y="297" width="120" height="60" as="geometry" />
        </mxCell>
        <mxCell id="75eCIlnac6tYJ7EprAjz-6" value="" style="edgeStyle=orthogonalEdgeStyle;rounded=0;orthogonalLoop=1;jettySize=auto;html=1;exitX=1;exitY=0.5;exitDx=0;exitDy=0;entryX=1;entryY=0.5;entryDx=0;entryDy=0;fontStyle=1;strokeWidth=2;" edge="1" parent="1" source="75eCIlnac6tYJ7EprAjz-2" target="75eCIlnac6tYJ7EprAjz-18">
          <mxGeometry relative="1" as="geometry">
            <mxPoint x="107" y="285" as="sourcePoint" />
            <mxPoint x="131" y="591" as="targetPoint" />
            <Array as="points">
              <mxPoint x="190" y="233" />
              <mxPoint x="190" y="610" />
            </Array>
          </mxGeometry>
        </mxCell>
        <mxCell id="75eCIlnac6tYJ7EprAjz-11" value="" style="edgeStyle=orthogonalEdgeStyle;rounded=0;orthogonalLoop=1;jettySize=auto;html=1;fontStyle=1;strokeWidth=2;" edge="1" parent="1" source="75eCIlnac6tYJ7EprAjz-9" target="75eCIlnac6tYJ7EprAjz-10">
          <mxGeometry relative="1" as="geometry" />
        </mxCell>
        <mxCell id="75eCIlnac6tYJ7EprAjz-9" value="newCD == NULL" style="rhombus;whiteSpace=wrap;html=1;fontStyle=1;strokeWidth=2;" vertex="1" parent="1">
          <mxGeometry x="45.25" y="377" width="103.5" height="90" as="geometry" />
        </mxCell>
        <mxCell id="75eCIlnac6tYJ7EprAjz-10" value="exit(1)" style="rounded=0;whiteSpace=wrap;html=1;fontStyle=1;strokeWidth=2;" vertex="1" parent="1">
          <mxGeometry x="37" y="487" width="120" height="60" as="geometry" />
        </mxCell>
        <mxCell id="75eCIlnac6tYJ7EprAjz-12" value="" style="edgeStyle=orthogonalEdgeStyle;rounded=0;orthogonalLoop=1;jettySize=auto;html=1;exitX=1;exitY=0.5;exitDx=0;exitDy=0;entryX=0.5;entryY=0;entryDx=0;entryDy=0;fontStyle=1;strokeWidth=2;" edge="1" parent="1" source="75eCIlnac6tYJ7EprAjz-9" target="75eCIlnac6tYJ7EprAjz-18">
          <mxGeometry relative="1" as="geometry">
            <mxPoint x="159" y="243" as="sourcePoint" />
            <mxPoint x="176" y="563" as="targetPoint" />
            <Array as="points">
              <mxPoint x="169" y="422" />
              <mxPoint x="169" y="560" />
              <mxPoint x="97" y="560" />
            </Array>
          </mxGeometry>
        </mxCell>
        <mxCell id="75eCIlnac6tYJ7EprAjz-14" value="да" style="text;html=1;align=center;verticalAlign=middle;whiteSpace=wrap;rounded=0;fontStyle=1;strokeWidth=2;" vertex="1" parent="1">
          <mxGeometry x="87" y="270" width="60" height="30" as="geometry" />
        </mxCell>
        <mxCell id="75eCIlnac6tYJ7EprAjz-15" value="да" style="text;html=1;align=center;verticalAlign=middle;whiteSpace=wrap;rounded=0;fontStyle=1;strokeWidth=2;" vertex="1" parent="1">
          <mxGeometry x="87" y="457" width="60" height="30" as="geometry" />
        </mxCell>
        <mxCell id="75eCIlnac6tYJ7EprAjz-16" value="нет" style="text;html=1;align=center;verticalAlign=middle;whiteSpace=wrap;rounded=0;fontStyle=1;strokeWidth=2;" vertex="1" parent="1">
          <mxGeometry x="134" y="206" width="60" height="30" as="geometry" />
        </mxCell>
        <mxCell id="75eCIlnac6tYJ7EprAjz-17" value="нет" style="text;html=1;align=center;verticalAlign=middle;whiteSpace=wrap;rounded=0;fontStyle=1;strokeWidth=2;" vertex="1" parent="1">
          <mxGeometry x="134" y="392" width="60" height="30" as="geometry" />
        </mxCell>
        <mxCell id="75eCIlnac6tYJ7EprAjz-18" value="1" style="ellipse;whiteSpace=wrap;html=1;aspect=fixed;fontStyle=1;strokeWidth=2;" vertex="1" parent="1">
          <mxGeometry x="64" y="577" width="66" height="66" as="geometry" />
        </mxCell>
        <mxCell id="75eCIlnac6tYJ7EprAjz-19" value="" style="edgeStyle=orthogonalEdgeStyle;rounded=0;orthogonalLoop=1;jettySize=auto;html=1;exitX=0;exitY=0.5;exitDx=0;exitDy=0;entryX=0;entryY=0.5;entryDx=0;entryDy=0;fontStyle=1;strokeWidth=2;" edge="1" parent="1" source="75eCIlnac6tYJ7EprAjz-18" target="75eCIlnac6tYJ7EprAjz-2">
          <mxGeometry relative="1" as="geometry">
            <mxPoint x="159" y="243" as="sourcePoint" />
            <mxPoint x="140" y="634" as="targetPoint" />
            <Array as="points">
              <mxPoint x="20" y="610" />
              <mxPoint x="20" y="233" />
            </Array>
          </mxGeometry>
        </mxCell>
        <mxCell id="75eCIlnac6tYJ7EprAjz-22" value="" style="edgeStyle=orthogonalEdgeStyle;rounded=0;orthogonalLoop=1;jettySize=auto;html=1;fontStyle=1;strokeWidth=2;" edge="1" parent="1" source="75eCIlnac6tYJ7EprAjz-20" target="75eCIlnac6tYJ7EprAjz-21">
          <mxGeometry relative="1" as="geometry" />
        </mxCell>
        <mxCell id="75eCIlnac6tYJ7EprAjz-20" value="1" style="ellipse;whiteSpace=wrap;html=1;aspect=fixed;fontStyle=1;strokeWidth=2;" vertex="1" parent="1">
          <mxGeometry x="271.06" y="24" width="66" height="66" as="geometry" />
        </mxCell>
        <mxCell id="75eCIlnac6tYJ7EprAjz-24" value="" style="edgeStyle=orthogonalEdgeStyle;rounded=0;orthogonalLoop=1;jettySize=auto;html=1;fontStyle=1;strokeWidth=2;" edge="1" parent="1" source="75eCIlnac6tYJ7EprAjz-21" target="75eCIlnac6tYJ7EprAjz-23">
          <mxGeometry relative="1" as="geometry" />
        </mxCell>
        <mxCell id="75eCIlnac6tYJ7EprAjz-21" value="&quot; %[^\n]&quot;&lt;div&gt;newCD-&amp;gt;title)&lt;/div&gt;" style="shape=parallelogram;perimeter=parallelogramPerimeter;whiteSpace=wrap;html=1;fixedSize=1;fontStyle=1;strokeWidth=2;" vertex="1" parent="1">
          <mxGeometry x="235.56" y="111" width="137" height="60" as="geometry" />
        </mxCell>
        <mxCell id="75eCIlnac6tYJ7EprAjz-26" value="" style="edgeStyle=orthogonalEdgeStyle;rounded=0;orthogonalLoop=1;jettySize=auto;html=1;fontStyle=1;strokeWidth=2;" edge="1" parent="1" source="75eCIlnac6tYJ7EprAjz-23" target="75eCIlnac6tYJ7EprAjz-25">
          <mxGeometry relative="1" as="geometry" />
        </mxCell>
        <mxCell id="75eCIlnac6tYJ7EprAjz-23" value="newCD-&amp;gt;&lt;div&gt;title[0] == &#39;*&#39;&lt;/div&gt;" style="rhombus;whiteSpace=wrap;html=1;fontStyle=1;strokeWidth=2;" vertex="1" parent="1">
          <mxGeometry x="252.31" y="195" width="103.5" height="90" as="geometry" />
        </mxCell>
        <mxCell id="75eCIlnac6tYJ7EprAjz-25" value="&lt;div&gt;free(newCD),&lt;br&gt;&lt;/div&gt;&lt;div&gt;break&lt;/div&gt;" style="rounded=0;whiteSpace=wrap;html=1;fontStyle=1;strokeWidth=2;" vertex="1" parent="1">
          <mxGeometry x="244.06" y="309" width="120" height="60" as="geometry" />
        </mxCell>
        <mxCell id="75eCIlnac6tYJ7EprAjz-27" value="да" style="text;html=1;align=center;verticalAlign=middle;whiteSpace=wrap;rounded=0;fontStyle=1;strokeWidth=2;" vertex="1" parent="1">
          <mxGeometry x="298.06" y="277" width="60" height="30" as="geometry" />
        </mxCell>
        <mxCell id="75eCIlnac6tYJ7EprAjz-28" value="" style="edgeStyle=orthogonalEdgeStyle;rounded=0;orthogonalLoop=1;jettySize=auto;html=1;exitX=1;exitY=0.5;exitDx=0;exitDy=0;entryX=0.5;entryY=0;entryDx=0;entryDy=0;fontStyle=1;strokeWidth=2;" edge="1" parent="1" source="75eCIlnac6tYJ7EprAjz-23" target="75eCIlnac6tYJ7EprAjz-30">
          <mxGeometry relative="1" as="geometry">
            <mxPoint x="367.06" y="239" as="sourcePoint" />
            <mxPoint x="314.06" y="415" as="targetPoint" />
            <Array as="points">
              <mxPoint x="385.06" y="240" />
              <mxPoint x="385.06" y="379" />
              <mxPoint x="304.06" y="379" />
            </Array>
          </mxGeometry>
        </mxCell>
        <mxCell id="75eCIlnac6tYJ7EprAjz-29" value="нет" style="text;html=1;align=center;verticalAlign=middle;whiteSpace=wrap;rounded=0;fontStyle=1;strokeWidth=2;" vertex="1" parent="1">
          <mxGeometry x="337.06" y="209" width="60" height="30" as="geometry" />
        </mxCell>
        <mxCell id="75eCIlnac6tYJ7EprAjz-32" value="" style="edgeStyle=orthogonalEdgeStyle;rounded=0;orthogonalLoop=1;jettySize=auto;html=1;fontStyle=1;strokeWidth=2;" edge="1" parent="1" source="75eCIlnac6tYJ7EprAjz-30" target="75eCIlnac6tYJ7EprAjz-31">
          <mxGeometry relative="1" as="geometry" />
        </mxCell>
        <mxCell id="75eCIlnac6tYJ7EprAjz-30" value="&quot; %[^\n]&quot;,&lt;div&gt;newCD-&amp;gt;artist&lt;br&gt;&lt;/div&gt;" style="shape=parallelogram;perimeter=parallelogramPerimeter;whiteSpace=wrap;html=1;fixedSize=1;fontStyle=1;strokeWidth=2;" vertex="1" parent="1">
          <mxGeometry x="235.56" y="403" width="137" height="60" as="geometry" />
        </mxCell>
        <mxCell id="75eCIlnac6tYJ7EprAjz-34" value="" style="edgeStyle=orthogonalEdgeStyle;rounded=0;orthogonalLoop=1;jettySize=auto;html=1;fontStyle=1;strokeWidth=2;" edge="1" parent="1" source="75eCIlnac6tYJ7EprAjz-31" target="75eCIlnac6tYJ7EprAjz-33">
          <mxGeometry relative="1" as="geometry" />
        </mxCell>
        <mxCell id="75eCIlnac6tYJ7EprAjz-31" value="&lt;div&gt;&quot;%d&quot;,&amp;nbsp;&lt;/div&gt;&lt;div&gt;&amp;amp;newCD-&amp;gt;tracks&lt;br&gt;&lt;/div&gt;" style="shape=parallelogram;perimeter=parallelogramPerimeter;whiteSpace=wrap;html=1;fixedSize=1;fontStyle=1;strokeWidth=2;" vertex="1" parent="1">
          <mxGeometry x="235.56" y="486" width="137" height="60" as="geometry" />
        </mxCell>
        <mxCell id="75eCIlnac6tYJ7EprAjz-33" value="2" style="ellipse;whiteSpace=wrap;html=1;aspect=fixed;fontStyle=1;strokeWidth=2;" vertex="1" parent="1">
          <mxGeometry x="271.06" y="564" width="66" height="66" as="geometry" />
        </mxCell>
        <mxCell id="75eCIlnac6tYJ7EprAjz-39" value="" style="edgeStyle=orthogonalEdgeStyle;rounded=0;orthogonalLoop=1;jettySize=auto;html=1;fontStyle=1;strokeWidth=2;" edge="1" parent="1" source="75eCIlnac6tYJ7EprAjz-35" target="75eCIlnac6tYJ7EprAjz-38">
          <mxGeometry relative="1" as="geometry" />
        </mxCell>
        <mxCell id="75eCIlnac6tYJ7EprAjz-35" value="2" style="ellipse;whiteSpace=wrap;html=1;aspect=fixed;fontStyle=1;strokeWidth=2;" vertex="1" parent="1">
          <mxGeometry x="556.44" y="28" width="66" height="66" as="geometry" />
        </mxCell>
        <mxCell id="75eCIlnac6tYJ7EprAjz-36" value="" style="edgeStyle=orthogonalEdgeStyle;rounded=0;orthogonalLoop=1;jettySize=auto;html=1;exitX=0.001;exitY=0.468;exitDx=0;exitDy=0;entryX=0;entryY=0.5;entryDx=0;entryDy=0;exitPerimeter=0;fontStyle=1;strokeWidth=2;" edge="1" parent="1" source="75eCIlnac6tYJ7EprAjz-33" target="75eCIlnac6tYJ7EprAjz-20">
          <mxGeometry relative="1" as="geometry">
            <mxPoint x="265.06" y="616" as="sourcePoint" />
            <mxPoint x="246.06" y="239" as="targetPoint" />
            <Array as="points">
              <mxPoint x="221.06" y="595" />
              <mxPoint x="221.06" y="57" />
            </Array>
          </mxGeometry>
        </mxCell>
        <mxCell id="75eCIlnac6tYJ7EprAjz-37" value="" style="edgeStyle=orthogonalEdgeStyle;rounded=0;orthogonalLoop=1;jettySize=auto;html=1;exitX=1;exitY=0.5;exitDx=0;exitDy=0;entryX=1;entryY=0.5;entryDx=0;entryDy=0;fontStyle=1;strokeWidth=2;" edge="1" parent="1" source="75eCIlnac6tYJ7EprAjz-20" target="75eCIlnac6tYJ7EprAjz-33">
          <mxGeometry relative="1" as="geometry">
            <mxPoint x="400" y="117" as="sourcePoint" />
            <mxPoint x="381" y="494" as="targetPoint" />
            <Array as="points">
              <mxPoint x="406" y="57" />
              <mxPoint x="406" y="597" />
            </Array>
          </mxGeometry>
        </mxCell>
        <mxCell id="75eCIlnac6tYJ7EprAjz-41" value="" style="edgeStyle=orthogonalEdgeStyle;rounded=0;orthogonalLoop=1;jettySize=auto;html=1;fontStyle=1;strokeWidth=2;" edge="1" parent="1" source="75eCIlnac6tYJ7EprAjz-38" target="75eCIlnac6tYJ7EprAjz-40">
          <mxGeometry relative="1" as="geometry" />
        </mxCell>
        <mxCell id="75eCIlnac6tYJ7EprAjz-38" value="&lt;div&gt;&quot;%d&quot;,&amp;nbsp;&lt;/div&gt;&lt;div&gt;&amp;amp;newCD-&amp;gt;year&lt;br&gt;&lt;/div&gt;" style="shape=parallelogram;perimeter=parallelogramPerimeter;whiteSpace=wrap;html=1;fixedSize=1;fontStyle=1;strokeWidth=2;" vertex="1" parent="1">
          <mxGeometry x="520.94" y="114" width="137" height="60" as="geometry" />
        </mxCell>
        <mxCell id="75eCIlnac6tYJ7EprAjz-43" value="" style="edgeStyle=orthogonalEdgeStyle;rounded=0;orthogonalLoop=1;jettySize=auto;html=1;fontStyle=1;strokeWidth=2;" edge="1" parent="1" source="75eCIlnac6tYJ7EprAjz-40" target="75eCIlnac6tYJ7EprAjz-42">
          <mxGeometry relative="1" as="geometry" />
        </mxCell>
        <mxCell id="75eCIlnac6tYJ7EprAjz-40" value="&lt;div&gt;&quot; %[^\n]&quot;,&lt;/div&gt;&lt;div&gt;newCD-&amp;gt;mounth&lt;br&gt;&lt;/div&gt;" style="shape=parallelogram;perimeter=parallelogramPerimeter;whiteSpace=wrap;html=1;fixedSize=1;fontStyle=1;strokeWidth=2;" vertex="1" parent="1">
          <mxGeometry x="520.94" y="194" width="137" height="60" as="geometry" />
        </mxCell>
        <mxCell id="75eCIlnac6tYJ7EprAjz-45" value="" style="edgeStyle=orthogonalEdgeStyle;rounded=0;orthogonalLoop=1;jettySize=auto;html=1;fontStyle=1;strokeWidth=2;" edge="1" parent="1" source="75eCIlnac6tYJ7EprAjz-42" target="75eCIlnac6tYJ7EprAjz-44">
          <mxGeometry relative="1" as="geometry" />
        </mxCell>
        <mxCell id="75eCIlnac6tYJ7EprAjz-42" value="newCD&lt;div&gt;-&amp;gt;next = NULL&lt;br&gt;&lt;/div&gt;" style="rounded=0;whiteSpace=wrap;html=1;fontStyle=1;strokeWidth=2;" vertex="1" parent="1">
          <mxGeometry x="529.44" y="277" width="120" height="60" as="geometry" />
        </mxCell>
        <mxCell id="75eCIlnac6tYJ7EprAjz-47" value="" style="edgeStyle=orthogonalEdgeStyle;rounded=0;orthogonalLoop=1;jettySize=auto;html=1;exitX=0;exitY=0.5;exitDx=0;exitDy=0;entryX=0.5;entryY=0;entryDx=0;entryDy=0;fontStyle=1;strokeWidth=2;" edge="1" parent="1" source="75eCIlnac6tYJ7EprAjz-44" target="75eCIlnac6tYJ7EprAjz-46">
          <mxGeometry relative="1" as="geometry">
            <mxPoint x="517.94" y="458" as="targetPoint" />
          </mxGeometry>
        </mxCell>
        <mxCell id="75eCIlnac6tYJ7EprAjz-44" value="head == NULL" style="rhombus;whiteSpace=wrap;html=1;fontStyle=1;strokeWidth=2;" vertex="1" parent="1">
          <mxGeometry x="537.69" y="360" width="103.5" height="90" as="geometry" />
        </mxCell>
        <mxCell id="75eCIlnac6tYJ7EprAjz-46" value="head = newCD" style="whiteSpace=wrap;html=1;fontStyle=1;strokeWidth=2;" vertex="1" parent="1">
          <mxGeometry x="457.94" y="470" width="120" height="60" as="geometry" />
        </mxCell>
        <mxCell id="75eCIlnac6tYJ7EprAjz-48" value="tail-&amp;gt;next = newCD" style="whiteSpace=wrap;html=1;fontStyle=1;strokeWidth=2;" vertex="1" parent="1">
          <mxGeometry x="603.94" y="470" width="120" height="60" as="geometry" />
        </mxCell>
        <mxCell id="75eCIlnac6tYJ7EprAjz-49" value="" style="edgeStyle=orthogonalEdgeStyle;rounded=0;orthogonalLoop=1;jettySize=auto;html=1;exitX=1;exitY=0.5;exitDx=0;exitDy=0;entryX=0.5;entryY=0;entryDx=0;entryDy=0;fontStyle=1;strokeWidth=2;" edge="1" parent="1" source="75eCIlnac6tYJ7EprAjz-44" target="75eCIlnac6tYJ7EprAjz-48">
          <mxGeometry relative="1" as="geometry">
            <mxPoint x="547.94" y="415" as="sourcePoint" />
            <mxPoint x="527.94" y="480" as="targetPoint" />
          </mxGeometry>
        </mxCell>
        <mxCell id="75eCIlnac6tYJ7EprAjz-50" value="да" style="text;html=1;align=center;verticalAlign=middle;whiteSpace=wrap;rounded=0;fontStyle=1;strokeWidth=2;" vertex="1" parent="1">
          <mxGeometry x="499.94" y="377" width="60" height="30" as="geometry" />
        </mxCell>
        <mxCell id="75eCIlnac6tYJ7EprAjz-51" value="нет" style="text;html=1;align=center;verticalAlign=middle;whiteSpace=wrap;rounded=0;fontStyle=1;strokeWidth=2;" vertex="1" parent="1">
          <mxGeometry x="622.44" y="377" width="60" height="30" as="geometry" />
        </mxCell>
        <mxCell id="75eCIlnac6tYJ7EprAjz-52" value="" style="endArrow=none;html=1;rounded=0;entryX=0.5;entryY=1;entryDx=0;entryDy=0;exitX=0.5;exitY=1;exitDx=0;exitDy=0;fontStyle=1;strokeWidth=2;" edge="1" parent="1" source="75eCIlnac6tYJ7EprAjz-46" target="75eCIlnac6tYJ7EprAjz-48">
          <mxGeometry width="50" height="50" relative="1" as="geometry">
            <mxPoint x="566.94" y="494" as="sourcePoint" />
            <mxPoint x="616.94" y="444" as="targetPoint" />
            <Array as="points">
              <mxPoint x="517.94" y="550" />
              <mxPoint x="663.94" y="550" />
            </Array>
          </mxGeometry>
        </mxCell>
        <mxCell id="75eCIlnac6tYJ7EprAjz-53" value="" style="edgeStyle=orthogonalEdgeStyle;rounded=0;orthogonalLoop=1;jettySize=auto;html=1;fontStyle=1;strokeWidth=2;" edge="1" parent="1">
          <mxGeometry relative="1" as="geometry">
            <mxPoint x="589.94" y="550" as="sourcePoint" />
            <mxPoint x="589.94" y="568" as="targetPoint" />
          </mxGeometry>
        </mxCell>
        <mxCell id="75eCIlnac6tYJ7EprAjz-56" value="" style="edgeStyle=orthogonalEdgeStyle;rounded=0;orthogonalLoop=1;jettySize=auto;html=1;fontStyle=1;strokeWidth=2;" edge="1" parent="1" source="75eCIlnac6tYJ7EprAjz-54" target="75eCIlnac6tYJ7EprAjz-55">
          <mxGeometry relative="1" as="geometry" />
        </mxCell>
        <mxCell id="75eCIlnac6tYJ7EprAjz-54" value="tail = newCD" style="whiteSpace=wrap;html=1;fontStyle=1;strokeWidth=2;" vertex="1" parent="1">
          <mxGeometry x="529.44" y="567" width="120" height="60" as="geometry" />
        </mxCell>
        <mxCell id="75eCIlnac6tYJ7EprAjz-55" value="3" style="ellipse;whiteSpace=wrap;html=1;aspect=fixed;fontStyle=1;strokeWidth=2;" vertex="1" parent="1">
          <mxGeometry x="556.44" y="643" width="66" height="66" as="geometry" />
        </mxCell>
        <mxCell id="75eCIlnac6tYJ7EprAjz-57" value="" style="edgeStyle=orthogonalEdgeStyle;rounded=0;orthogonalLoop=1;jettySize=auto;html=1;exitX=1;exitY=0.5;exitDx=0;exitDy=0;entryX=1;entryY=0.5;entryDx=0;entryDy=0;fontStyle=1;strokeWidth=2;" edge="1" parent="1" source="75eCIlnac6tYJ7EprAjz-35" target="75eCIlnac6tYJ7EprAjz-55">
          <mxGeometry relative="1" as="geometry">
            <mxPoint x="662.94" y="48" as="sourcePoint" />
            <mxPoint x="662.94" y="588" as="targetPoint" />
            <Array as="points">
              <mxPoint x="741.94" y="61" />
              <mxPoint x="741.94" y="676" />
            </Array>
          </mxGeometry>
        </mxCell>
        <mxCell id="75eCIlnac6tYJ7EprAjz-58" value="" style="edgeStyle=orthogonalEdgeStyle;rounded=0;orthogonalLoop=1;jettySize=auto;html=1;exitX=0;exitY=0.5;exitDx=0;exitDy=0;entryX=0;entryY=0.5;entryDx=0;entryDy=0;fontStyle=1;strokeWidth=2;" edge="1" parent="1" source="75eCIlnac6tYJ7EprAjz-55" target="75eCIlnac6tYJ7EprAjz-35">
          <mxGeometry relative="1" as="geometry">
            <mxPoint x="284.94" y="605" as="sourcePoint" />
            <mxPoint x="284.94" y="67" as="targetPoint" />
            <Array as="points">
              <mxPoint x="441.94" y="676" />
              <mxPoint x="441.94" y="61" />
            </Array>
          </mxGeometry>
        </mxCell>
        <mxCell id="75eCIlnac6tYJ7EprAjz-61" value="" style="edgeStyle=orthogonalEdgeStyle;rounded=0;orthogonalLoop=1;jettySize=auto;html=1;fontStyle=1;strokeWidth=2;" edge="1" parent="1" source="75eCIlnac6tYJ7EprAjz-59" target="75eCIlnac6tYJ7EprAjz-62">
          <mxGeometry relative="1" as="geometry">
            <mxPoint x="97" y="757" as="targetPoint" />
          </mxGeometry>
        </mxCell>
        <mxCell id="75eCIlnac6tYJ7EprAjz-59" value="3" style="ellipse;whiteSpace=wrap;html=1;aspect=fixed;fontStyle=1;strokeWidth=2;" vertex="1" parent="1">
          <mxGeometry x="64.00000000000006" y="665" width="66" height="66" as="geometry" />
        </mxCell>
        <mxCell id="75eCIlnac6tYJ7EprAjz-64" value="" style="edgeStyle=orthogonalEdgeStyle;rounded=0;orthogonalLoop=1;jettySize=auto;html=1;fontStyle=1;strokeWidth=2;" edge="1" parent="1" source="75eCIlnac6tYJ7EprAjz-62" target="75eCIlnac6tYJ7EprAjz-63">
          <mxGeometry relative="1" as="geometry" />
        </mxCell>
        <mxCell id="75eCIlnac6tYJ7EprAjz-62" value="&quot; %c&quot;,&lt;div&gt;&amp;amp;continueInput&lt;/div&gt;" style="shape=parallelogram;perimeter=parallelogramPerimeter;whiteSpace=wrap;html=1;fixedSize=1;fontStyle=1;strokeWidth=2;" vertex="1" parent="1">
          <mxGeometry x="28.5" y="753" width="137" height="60" as="geometry" />
        </mxCell>
        <mxCell id="75eCIlnac6tYJ7EprAjz-66" value="" style="edgeStyle=orthogonalEdgeStyle;rounded=0;orthogonalLoop=1;jettySize=auto;html=1;entryX=0.501;entryY=0.031;entryDx=0;entryDy=0;entryPerimeter=0;fontStyle=1;strokeWidth=2;" edge="1" parent="1" source="75eCIlnac6tYJ7EprAjz-63" target="75eCIlnac6tYJ7EprAjz-65">
          <mxGeometry relative="1" as="geometry" />
        </mxCell>
        <mxCell id="75eCIlnac6tYJ7EprAjz-63" value="continueInput == &#39;n&#39;&amp;nbsp;&lt;div&gt;|| continueInput == &#39;N&#39;&lt;/div&gt;" style="rhombus;whiteSpace=wrap;html=1;fontSize=8;fontStyle=1;strokeWidth=2;" vertex="1" parent="1">
          <mxGeometry x="45.25000000000006" y="835" width="103.5" height="90" as="geometry" />
        </mxCell>
        <mxCell id="75eCIlnac6tYJ7EprAjz-68" value="" style="edgeStyle=orthogonalEdgeStyle;rounded=0;orthogonalLoop=1;jettySize=auto;html=1;fontStyle=1;strokeWidth=2;" edge="1" parent="1" source="75eCIlnac6tYJ7EprAjz-65" target="75eCIlnac6tYJ7EprAjz-67">
          <mxGeometry relative="1" as="geometry" />
        </mxCell>
        <mxCell id="75eCIlnac6tYJ7EprAjz-65" value="break" style="whiteSpace=wrap;html=1;fontSize=12;fontStyle=1;strokeWidth=2;" vertex="1" parent="1">
          <mxGeometry x="37.00000000000006" y="944" width="120" height="60" as="geometry" />
        </mxCell>
        <mxCell id="75eCIlnac6tYJ7EprAjz-67" value="конец" style="rounded=1;whiteSpace=wrap;html=1;strokeWidth=2;fontStyle=1" vertex="1" parent="1">
          <mxGeometry x="37" y="1025" width="120" height="60" as="geometry" />
        </mxCell>
        <mxCell id="75eCIlnac6tYJ7EprAjz-69" value="" style="edgeStyle=orthogonalEdgeStyle;rounded=0;orthogonalLoop=1;jettySize=auto;html=1;exitX=1;exitY=0.5;exitDx=0;exitDy=0;entryX=1;entryY=0.5;entryDx=0;entryDy=0;fontStyle=1;strokeWidth=2;" edge="1" parent="1" source="75eCIlnac6tYJ7EprAjz-59" target="75eCIlnac6tYJ7EprAjz-67">
          <mxGeometry relative="1" as="geometry">
            <mxPoint x="147" y="610" as="sourcePoint" />
            <mxPoint x="147" y="1225" as="targetPoint" />
            <Array as="points">
              <mxPoint x="190" y="698" />
              <mxPoint x="190" y="1055" />
            </Array>
          </mxGeometry>
        </mxCell>
        <mxCell id="75eCIlnac6tYJ7EprAjz-70" value="" style="edgeStyle=orthogonalEdgeStyle;rounded=0;orthogonalLoop=1;jettySize=auto;html=1;entryX=0;entryY=0.5;entryDx=0;entryDy=0;exitX=0;exitY=0.5;exitDx=0;exitDy=0;fontStyle=1;strokeWidth=2;" edge="1" parent="1" source="75eCIlnac6tYJ7EprAjz-63" target="75eCIlnac6tYJ7EprAjz-59">
          <mxGeometry relative="1" as="geometry">
            <mxPoint x="41" y="878" as="sourcePoint" />
            <mxPoint x="48.049999999999955" y="267" as="targetPoint" />
            <Array as="points">
              <mxPoint x="16" y="880" />
              <mxPoint x="16" y="698" />
            </Array>
          </mxGeometry>
        </mxCell>
        <mxCell id="75eCIlnac6tYJ7EprAjz-73" value="" style="edgeStyle=orthogonalEdgeStyle;rounded=0;orthogonalLoop=1;jettySize=auto;html=1;exitX=1;exitY=0.5;exitDx=0;exitDy=0;fontStyle=1;strokeWidth=2;" edge="1" parent="1" source="75eCIlnac6tYJ7EprAjz-65">
          <mxGeometry relative="1" as="geometry">
            <mxPoint x="107" y="935" as="sourcePoint" />
            <mxPoint x="190" y="974" as="targetPoint" />
          </mxGeometry>
        </mxCell>
        <mxCell id="75eCIlnac6tYJ7EprAjz-74" value="да" style="text;html=1;align=center;verticalAlign=middle;whiteSpace=wrap;rounded=0;fontStyle=1;strokeWidth=2;" vertex="1" parent="1">
          <mxGeometry x="88.75" y="917" width="60" height="30" as="geometry" />
        </mxCell>
        <mxCell id="75eCIlnac6tYJ7EprAjz-75" value="нет" style="text;html=1;align=center;verticalAlign=middle;whiteSpace=wrap;rounded=0;fontStyle=1;strokeWidth=2;" vertex="1" parent="1">
          <mxGeometry x="4" y="850" width="60" height="30" as="geometry" />
        </mxCell>
      </root>
    </mxGraphModel>
  </diagram>
</mxfile>
